<svg version="1.1" viewBox="0.0 0.0 404.8241469816273 404.002624671916" fill="none" stroke="none" stroke-linecap="square" stroke-miterlimit="10" xmlns:xlink="http://www.w3.org/1999/xlink" xmlns="http://www.w3.org/2000/svg"><clipPath id="p.0"><path d="m0 0l404.82416 0l0 404.00262l-404.82416 0l0 -404.00262z" clip-rule="nonzero"/></clipPath><g clip-path="url(#p.0)"><path fill="#000000" fill-opacity="0.0" d="m0 0l404.82416 0l0 404.00262l-404.82416 0z" fill-rule="evenodd"/><defs><radialGradient id="p.1" gradientUnits="userSpaceOnUse" gradientTransform="matrix(5.82590115800307 0.0 0.0 5.82590115800307 0.0 0.0)" spreadMethod="pad" cx="4.883161956594046" cy="5.59880941189893" fx="4.883161956594046" fy="5.59880941189893" r="5.825901031494141"><stop offset="0.0" stop-color="#dddddd"/><stop offset="1.0" stop-color="#919191"/></radialGradient></defs><path fill="url(#p.1)" d="m4.4488187 32.61811l0 0c0 -13.254835 10.745167 -24.0 24.0 -24.0l0 0c6.365196 0 12.469692 2.5285635 16.970562 7.029437c4.5008736 4.5008726 7.029438 10.605367 7.029438 16.970562l0 0c0 13.254833 -10.745167 24.0 -24.0 24.0l0 0c-13.254833 0 -24.0 -10.745167 -24.0 -24.0z" fill-rule="evenodd"/><path stroke="#434343" stroke-width="8.0" stroke-linejoin="round" stroke-linecap="butt" d="m4.4488187 32.61811l0 0c0 -13.254835 10.745167 -24.0 24.0 -24.0l0 0c6.365196 0 12.469692 2.5285635 16.970562 7.029437c4.5008736 4.5008726 7.029438 10.605367 7.029438 16.970562l0 0c0 13.254833 -10.745167 24.0 -24.0 24.0l0 0c-13.254833 0 -24.0 -10.745167 -24.0 -24.0z" fill-rule="evenodd"/><path fill="#000000" fill-opacity="0.0" d="m19.96063 24.129921l16.976377 16.97638" fill-rule="evenodd"/><path stroke="#000000" stroke-width="3.0" stroke-linejoin="round" stroke-linecap="butt" d="m19.96063 24.129921l16.976377 16.97638" fill-rule="evenodd"/><path fill="#000000" fill-opacity="0.0" d="m36.937008 24.129921l-16.976377 16.97638" fill-rule="evenodd"/><path stroke="#000000" stroke-width="3.0" stroke-linejoin="round" stroke-linecap="butt" d="m36.937008 24.129921l-16.976377 16.97638" fill-rule="evenodd"/></g></svg>